<?xml version="1.0" encoding="UTF-8"?><svg xmlns="http://www.w3.org/2000/svg" xmlns:xlink="http://www.w3.org/1999/xlink" width="768" zoomAndPan="magnify" viewBox="0 0 768 767.999994" height="767.999994" preserveAspectRatio="xMidYMid meet" version="1.0"><path fill="rgb(77.648926%, 90.979004%, 36.468506%)" d="M 209.636719 642.515625 C 209.636719 707.066406 248.246094 758.949219 295.90625 758.949219 C 343.566406 758.949219 309.78125 706.464844 309.78125 642.515625 C 309.78125 578.5625 344.167969 526.078125 296.507812 526.078125 C 248.851562 526.078125 209.636719 578.5625 209.636719 642.515625 Z M 209.636719 642.515625 " fill-opacity="1" fill-rule="nonzero"/><path fill="rgb(61.569214%, 77.648926%, 21.958923%)" d="M 217.480469 612.347656 C 217.480469 660.007812 245.835938 698.621094 281.425781 698.621094 C 317.019531 698.621094 291.683594 660.007812 291.683594 612.347656 C 291.683594 564.6875 316.417969 526.078125 281.425781 526.078125 C 246.4375 526.078125 217.480469 564.6875 217.480469 612.347656 Z M 217.480469 612.347656 " fill-opacity="1" fill-rule="nonzero"/><path stroke-linecap="round" transform="matrix(6.032788, 0, 0, 6.032992, -23.228162, -22.925351)" fill="none" stroke-linejoin="round" d="M 38.599878 110.300324 C 38.599878 120.999954 44.9998 129.599802 52.899988 129.599802 C 60.800175 129.599802 55.199919 120.900242 55.199919 110.300324 C 55.199919 99.699759 60.899891 91.000199 52.999703 91.000199 C 45.100163 91.000199 38.599878 99.699759 38.599878 110.300324 Z M 38.599878 110.300324 " stroke="rgb(19.999695%, 21.179199%, 22.749329%)" stroke-width="3" stroke-opacity="1" stroke-miterlimit="10"/><path fill="rgb(77.648926%, 90.979004%, 36.468506%)" d="M 558.332031 642.515625 C 558.332031 707.066406 519.722656 758.949219 472.0625 758.949219 C 424.40625 758.949219 458.1875 706.464844 458.1875 642.515625 C 458.1875 578.5625 423.800781 526.078125 471.460938 526.078125 C 519.121094 526.078125 558.332031 578.5625 558.332031 642.515625 Z M 558.332031 642.515625 " fill-opacity="1" fill-rule="nonzero"/><path fill="rgb(61.569214%, 77.648926%, 21.958923%)" d="M 550.488281 612.347656 C 550.488281 660.007812 522.136719 698.621094 486.542969 698.621094 C 450.949219 698.621094 476.285156 660.007812 476.285156 612.347656 C 476.285156 564.6875 451.550781 526.078125 486.542969 526.078125 C 521.53125 526.078125 550.488281 564.6875 550.488281 612.347656 Z M 550.488281 612.347656 " fill-opacity="1" fill-rule="nonzero"/><path stroke-linecap="round" transform="matrix(6.032788, 0, 0, 6.032992, -23.228162, -22.925351)" fill="none" stroke-linejoin="round" d="M 96.399905 110.300324 C 96.399905 120.999954 89.999983 129.599802 82.099795 129.599802 C 74.200255 129.599802 79.799864 120.900242 79.799864 110.300324 C 79.799864 99.699759 74.099892 91.000199 82.00008 91.000199 C 89.900267 91.000199 96.399905 99.699759 96.399905 110.300324 Z M 96.399905 110.300324 " stroke="rgb(19.999695%, 21.179199%, 22.749329%)" stroke-width="3" stroke-opacity="1" stroke-miterlimit="10"/><path fill="rgb(77.648926%, 90.979004%, 36.468506%)" d="M 469.652344 129.710938 C 469.652344 181.59375 431.644531 223.824219 383.984375 223.824219 C 336.929688 223.824219 298.320312 181.59375 298.320312 129.710938 C 298.320312 77.824219 336.324219 9.050781 383.984375 9.050781 C 431.039062 9.050781 469.652344 77.824219 469.652344 129.710938 Z M 469.652344 129.710938 " fill-opacity="1" fill-rule="nonzero"/><path fill="rgb(61.569214%, 77.648926%, 21.958923%)" d="M 435.265625 129.710938 C 435.265625 181.59375 412.339844 223.824219 383.984375 223.824219 C 355.632812 223.824219 332.707031 181.59375 332.707031 129.710938 C 332.707031 77.824219 355.632812 9.050781 383.984375 9.050781 C 412.339844 9.050781 435.265625 77.824219 435.265625 129.710938 Z M 435.265625 129.710938 " fill-opacity="1" fill-rule="nonzero"/><path stroke-linecap="round" transform="matrix(6.032788, 0, 0, 6.032992, -23.228162, -22.925351)" fill="none" stroke-linejoin="round" d="M 81.700286 25.300264 C 81.700286 33.900111 75.400079 40.900033 67.499892 40.900033 C 59.700067 40.900033 53.300145 33.900111 53.300145 25.300264 C 53.300145 16.699768 59.599704 5.300211 67.499892 5.300211 C 75.299716 5.300211 81.700286 16.699768 81.700286 25.300264 Z M 81.700286 25.300264 " stroke="rgb(19.999695%, 21.179199%, 22.749329%)" stroke-width="3" stroke-opacity="1" stroke-miterlimit="10"/><path fill="rgb(77.648926%, 90.979004%, 36.468506%)" d="M 49.164062 235.890625 C 49.164062 265.453125 73.898438 439.804688 103.460938 439.804688 C 119.144531 439.804688 133.625 390.335938 143.277344 339.65625 C 169.820312 357.152344 206.019531 353.535156 229.546875 330.003906 C 256.691406 302.855469 256.691406 258.816406 229.546875 231.667969 C 204.8125 206.933594 129.402344 168.921875 95.617188 182.195312 C 69.074219 185.816406 49.164062 208.742188 49.164062 235.890625 Z M 49.164062 235.890625 " fill-opacity="1" fill-rule="nonzero"/><path fill="rgb(61.569214%, 77.648926%, 21.958923%)" d="M 216.875 340.261719 C 221.703125 337.246094 225.925781 334.226562 229.546875 330.003906 C 256.691406 302.855469 256.691406 258.816406 229.546875 231.667969 C 204.8125 206.933594 129.402344 168.921875 95.617188 182.195312 C 93.808594 182.195312 91.394531 182.800781 89.585938 183.402344 C 75.105469 193.054688 66.058594 209.34375 66.058594 228.046875 C 66.058594 256.402344 87.773438 413.261719 115.527344 430.753906 C 126.386719 414.464844 136.039062 377.664062 143.277344 339.65625 C 147.5 342.675781 152.324219 344.484375 157.152344 346.292969 C 158.359375 341.46875 158.960938 336.640625 160.167969 331.816406 C 177.058594 343.277344 197.570312 345.691406 216.875 340.261719 Z M 216.875 340.261719 " fill-opacity="1" fill-rule="nonzero"/><path stroke-linecap="round" transform="matrix(6.032788, 0, 0, 6.032992, -23.228162, -22.925351)" fill="none" stroke-linejoin="round" d="M 11.999796 42.900103 C 11.999796 47.800242 16.099787 76.699926 21.000091 76.699926 C 23.599817 76.699926 26.000112 68.500221 27.600092 60.099798 C 31.999877 62.999867 38.00029 62.400299 41.900202 58.499871 C 46.399702 53.999876 46.399702 46.700171 41.900202 42.200175 C 37.800211 38.100323 25.300161 31.799682 19.699905 33.999823 C 15.30012 34.600039 11.999796 38.400107 11.999796 42.900103 Z M 11.999796 42.900103 " stroke="rgb(19.999695%, 21.179199%, 22.749329%)" stroke-width="3" stroke-opacity="1" stroke-miterlimit="10"/><path stroke-linecap="round" transform="matrix(6.032788, 0, 0, 6.032992, -23.228162, -22.925351)" fill="none" stroke-linejoin="round" d="M 23.000229 53.200236 C 23.000229 53.200236 23.200308 59.100087 29.999739 61.199869 " stroke="rgb(19.999695%, 21.179199%, 22.749329%)" stroke-width="3" stroke-opacity="1" stroke-miterlimit="10"/><path fill="rgb(77.648926%, 90.979004%, 36.468506%)" d="M 718.804688 235.890625 C 718.804688 265.453125 694.070312 439.804688 664.507812 439.804688 C 648.824219 439.804688 634.347656 390.335938 624.691406 339.65625 C 598.148438 357.152344 561.953125 353.535156 538.425781 330.003906 C 511.277344 302.855469 511.277344 258.816406 538.425781 231.667969 C 563.160156 206.933594 638.570312 168.921875 672.351562 182.195312 C 698.898438 185.816406 718.804688 208.742188 718.804688 235.890625 Z M 718.804688 235.890625 " fill-opacity="1" fill-rule="nonzero"/><path fill="rgb(61.569214%, 77.648926%, 21.958923%)" d="M 551.09375 340.261719 C 546.265625 337.246094 542.042969 334.226562 538.425781 330.003906 C 511.277344 302.855469 511.277344 258.816406 538.425781 231.667969 C 563.160156 206.933594 638.570312 168.921875 672.351562 182.195312 C 674.164062 182.195312 676.574219 182.800781 678.386719 183.402344 C 692.863281 193.054688 701.914062 209.34375 701.914062 228.046875 C 701.914062 256.402344 680.195312 413.261719 652.445312 430.753906 C 641.585938 414.464844 631.933594 377.664062 624.691406 339.65625 C 620.46875 342.675781 615.644531 344.484375 610.816406 346.292969 C 609.613281 341.46875 609.007812 336.640625 607.800781 331.816406 C 590.910156 343.277344 570.398438 345.691406 551.09375 340.261719 Z M 551.09375 340.261719 " fill-opacity="1" fill-rule="nonzero"/><path stroke-linecap="round" transform="matrix(6.032788, 0, 0, 6.032992, -23.228162, -22.925351)" fill="none" stroke-linejoin="round" d="M 122.999987 42.900103 C 122.999987 47.800242 118.899997 76.699926 113.999692 76.699926 C 111.399966 76.699926 109.000319 68.500221 107.399691 60.099798 C 102.999906 62.999867 97.000141 62.400299 93.100229 58.499871 C 88.600081 53.999876 88.600081 46.700171 93.100229 42.200175 C 97.200219 38.100323 109.70027 31.799682 115.299878 33.999823 C 119.700311 34.600039 122.999987 38.400107 122.999987 42.900103 Z M 122.999987 42.900103 " stroke="rgb(19.999695%, 21.179199%, 22.749329%)" stroke-width="3" stroke-opacity="1" stroke-miterlimit="10"/><path stroke-linecap="round" transform="matrix(6.032788, 0, 0, 6.032992, -23.228162, -22.925351)" fill="none" stroke-linejoin="round" d="M 112.000202 53.200236 C 112.000202 53.200236 111.800123 59.100087 105.000044 61.199869 " stroke="rgb(19.999695%, 21.179199%, 22.749329%)" stroke-width="3" stroke-opacity="1" stroke-miterlimit="10"/><path fill="rgb(49.409485%, 75.689697%, 50.979614%)" d="M 590.304688 383.699219 C 590.304688 531.507812 498.003906 650.960938 383.984375 650.960938 C 269.964844 650.960938 177.664062 531.507812 177.664062 383.699219 C 177.664062 235.890625 269.964844 196.675781 383.984375 196.675781 C 498.003906 196.070312 590.304688 235.890625 590.304688 383.699219 Z M 590.304688 383.699219 " fill-opacity="1" fill-rule="nonzero"/><path fill="rgb(32.548523%, 56.858826%, 34.899902%)" d="M 383.984375 249.765625 C 277.203125 249.765625 189.730469 284.757812 178.871094 410.242188 C 189.125 544.777344 277.203125 650.355469 383.984375 650.355469 C 490.765625 650.355469 578.242188 545.382812 589.101562 410.242188 C 578.242188 284.757812 490.765625 249.765625 383.984375 249.765625 Z M 383.984375 249.765625 " fill-opacity="1" fill-rule="nonzero"/><path fill="rgb(24.708557%, 50.979614%, 38.42926%)" d="M 383.984375 454.285156 C 309.78125 454.285156 245.230469 471.175781 208.429688 523.664062 C 244.628906 599.679688 309.78125 650.355469 383.984375 650.355469 C 458.1875 650.355469 522.738281 599.679688 559.539062 523.664062 C 522.738281 471.175781 458.1875 454.285156 383.984375 454.285156 Z M 383.984375 454.285156 " fill-opacity="1" fill-rule="nonzero"/><path stroke-linecap="round" transform="matrix(6.032788, 0, 0, 6.032992, -23.228162, -22.925351)" fill="none" stroke-linejoin="round" d="M 101.69972 67.40015 C 101.69972 91.900198 86.399865 111.700179 67.499892 111.700179 C 48.599918 111.700179 33.300064 91.900198 33.300064 67.40015 C 33.300064 42.900103 48.599918 36.400037 67.499892 36.400037 C 86.399865 36.299677 101.69972 42.900103 101.69972 67.40015 Z M 101.69972 67.40015 " stroke="rgb(19.999695%, 21.179199%, 22.749329%)" stroke-width="3" stroke-opacity="1" stroke-miterlimit="10"/><path stroke-linecap="round" transform="matrix(6.032788, 0, 0, 6.032992, -23.228162, -22.925351)" fill="none" stroke-linejoin="round" d="M 82.600315 72.499714 L 67.499892 81.199921 L 52.400115 72.499714 L 52.400115 55.000235 L 67.499892 46.300027 L 82.600315 55.000235 Z M 82.600315 72.499714 " stroke="rgb(19.999695%, 21.179199%, 22.749329%)" stroke-width="3" stroke-opacity="1" stroke-miterlimit="10"/><path stroke-linecap="round" transform="matrix(6.032788, 0, 0, 6.032992, -23.228162, -22.925351)" fill="none" stroke-linejoin="round" d="M 67.499892 46.200315 L 67.499892 37.70018 " stroke="rgb(19.999695%, 21.179199%, 22.749329%)" stroke-width="3" stroke-opacity="1" stroke-miterlimit="10"/><path stroke-linecap="round" transform="matrix(6.032788, 0, 0, 6.032992, -23.228162, -22.925351)" fill="none" stroke-linejoin="round" d="M 67.499892 110.300324 L 67.499892 81.199921 " stroke="rgb(19.999695%, 21.179199%, 22.749329%)" stroke-width="3" stroke-opacity="1" stroke-miterlimit="10"/><path stroke-linecap="round" transform="matrix(6.032788, 0, 0, 6.032992, -23.228162, -22.925351)" fill="none" stroke-linejoin="round" d="M 52.299752 54.899875 L 38.300084 48.000313 " stroke="rgb(19.999695%, 21.179199%, 22.749329%)" stroke-width="3" stroke-opacity="1" stroke-miterlimit="10"/><path stroke-linecap="round" transform="matrix(6.032788, 0, 0, 6.032992, -23.228162, -22.925351)" fill="none" stroke-linejoin="round" d="M 99.799945 81.899848 L 82.700031 72.400002 " stroke="rgb(19.999695%, 21.179199%, 22.749329%)" stroke-width="3" stroke-opacity="1" stroke-miterlimit="10"/><path stroke-linecap="round" transform="matrix(6.032788, 0, 0, 6.032992, -23.228162, -22.925351)" fill="none" stroke-linejoin="round" d="M 52.299752 72.400002 L 36.700103 81.899848 " stroke="rgb(19.999695%, 21.179199%, 22.749329%)" stroke-width="3" stroke-opacity="1" stroke-miterlimit="10"/><path stroke-linecap="round" transform="matrix(6.032788, 0, 0, 6.032992, -23.228162, -22.925351)" fill="none" stroke-linejoin="round" d="M 95.999748 46.999955 L 82.700031 54.899875 " stroke="rgb(19.999695%, 21.179199%, 22.749329%)" stroke-width="3" stroke-opacity="1" stroke-miterlimit="10"/><path stroke-linecap="round" transform="matrix(6.032788, 0, 0, 6.032992, -23.228162, -22.925351)" fill="none" stroke-linejoin="round" d="M 73.60002 20.800268 C 73.60002 19.900269 74.299971 19.199694 75.200001 19.199694 C 76.10003 19.199694 76.799981 19.900269 76.799981 20.800268 " stroke="rgb(19.999695%, 21.179199%, 22.749329%)" stroke-width="3" stroke-opacity="1" stroke-miterlimit="10"/><path stroke-linecap="round" transform="matrix(6.032788, 0, 0, 6.032992, -23.228162, -22.925351)" fill="none" stroke-linejoin="round" d="M 58.100087 20.800268 C 58.100087 19.900269 58.800038 19.199694 59.700067 19.199694 C 60.600097 19.199694 61.300048 19.900269 61.300048 20.800268 " stroke="rgb(19.999695%, 21.179199%, 22.749329%)" stroke-width="3" stroke-opacity="1" stroke-miterlimit="10"/></svg>